<?xml version="1.0" standalone="no"?>
<!DOCTYPE svg PUBLIC "-//W3C//DTD SVG 20010904//EN"
 "http://www.w3.org/TR/2001/REC-SVG-20010904/DTD/svg10.dtd">
<svg version="1.0" xmlns="http://www.w3.org/2000/svg"
 width="193.000000pt" height="193.000000pt" viewBox="0 0 193.000000 193.000000"
 preserveAspectRatio="xMidYMid meet">
<metadata>
Created by potrace 1.14, written by Peter Selinger 2001-2017
</metadata>
<g transform="translate(0.000000,193.000000) scale(0.100000,-0.100000)"
fill="#000000" stroke="none">
<path d="M1120 1489 c-56 -8 -114 -32 -156 -64 l-32 -24 -58 20 c-89 31 -196
24 -278 -18 -95 -49 -173 -170 -181 -280 -4 -57 18 -168 36 -179 15 -9 10 -32
-8 -38 -13 -3 -11 -4 4 -3 13 1 33 -10 50 -29 15 -17 62 -58 104 -90 135 -104
344 -268 349 -274 3 -3 26 -22 52 -43 l47 -37 211 272 c116 150 218 280 225
290 7 9 12 18 10 20 -2 1 2 25 9 52 7 27 12 66 11 88 -1 22 3 38 9 38 8 0 7 3
0 8 -7 4 -16 24 -22 45 -45 161 -214 271 -382 246z"/>
<path d="M1504 1472 c-17 -26 10 -49 32 -27 13 12 14 19 4 30 -16 19 -23 19
-36 -3z"/>
<path d="M333 1206 c-9 -11 -8 -17 6 -30 16 -15 19 -15 31 -1 10 12 10 18 0
30 -15 18 -21 18 -37 1z"/>
<path d="M1587 1169 c7 -7 15 -10 18 -7 3 3 -2 9 -12 12 -14 6 -15 5 -6 -5z"/>
<path d="M1622 1125 c0 -16 2 -22 5 -12 2 9 2 23 0 30 -3 6 -5 -1 -5 -18z"/>
<path d="M1589 1063 l-24 -28 28 24 c25 23 32 31 24 31 -2 0 -14 -12 -28 -27z"/>
<path d="M329 1013 c-13 -16 -12 -17 4 -4 9 7 17 15 17 17 0 8 -8 3 -21 -13z"/>
<path d="M360 930 c8 -5 20 -10 25 -10 6 0 3 5 -5 10 -8 5 -19 10 -25 10 -5 0
-3 -5 5 -10z"/>
<path d="M1431 787 c-9 -12 -8 -16 3 -20 19 -7 27 4 17 21 -6 10 -10 10 -20
-1z"/>
<path d="M477 672 c-13 -15 -13 -19 2 -33 15 -14 17 -14 31 0 13 14 13 18 -2
33 -15 15 -17 15 -31 0z"/>
<path d="M282 659 c2 -6 8 -10 13 -10 5 0 11 4 13 10 2 6 -4 11 -13 11 -9 0
-15 -5 -13 -11z"/>
<path d="M1315 661 c-6 -11 9 -23 19 -14 9 9 7 23 -3 23 -6 0 -12 -4 -16 -9z"/>
<path d="M1762 649 c2 -6 8 -10 13 -10 5 0 11 4 13 10 2 6 -4 11 -13 11 -9 0
-15 -5 -13 -11z"/>
<path d="M772 611 c4 -13 18 -16 19 -4 0 4 -5 9 -11 12 -7 2 -11 -2 -8 -8z"/>
<path d="M1296 595 c-17 -13 -17 -14 2 -33 19 -19 19 -19 31 0 17 27 -7 51
-33 33z"/>
</g>
</svg>
